<svg xmlns="http://www.w3.org/2000/svg" xmlns:xlink="http://www.w3.org/1999/xlink" width="500" height="695" viewBox="0 0 500 695">
    <defs>
        <path id="a" d="M.445.388h28.68V29.06H.445z"/>
    </defs>
    <g fill="none" fill-rule="evenodd">
        <path fill="#2F9CD3" d="M108.398 203.336l2.409 2.425-95.626 94.997-2.41-2.426z"/>
        <path fill="#2F9CD3" d="M15.108 298.26l94.987 95.632-2.426 2.408-94.986-95.63zM110.74 203.272l94.984 95.631-2.425 2.409-94.985-95.631z"/>
        <path fill="#2F9CD3" d="M107.818 204.856l3.418.012-.645 190.234-3.419-.012z"/>
        <path fill="#2F9CD3" d="M14.002 297.852l190.223.642-.01 3.419-190.225-.642z"/>
        <path fill="#2F9CD3" d="M203.307 298.894l2.408 2.426-95.629 94.989-2.409-2.426z"/>
        <path fill="#2F9CD3" d="M15.108 298.26l94.987 95.632-2.426 2.408-94.986-95.63zM202.966 487.049l2.408 2.425-95.626 94.996-2.41-2.425z"/>
        <path fill="#2F9CD3" d="M109.675 581.973l94.988 95.632-2.426 2.408-94.987-95.631zM205.307 486.984l94.984 95.632-2.425 2.409-94.985-95.632z"/>
        <path fill="#2F9CD3" d="M202.385 488.569l3.418.012-.644 190.234-3.419-.012z"/>
        <path fill="#2F9CD3" d="M108.569 581.565l190.224.642-.011 3.419-190.225-.642z"/>
        <path fill="#2F9CD3" d="M297.874 582.607l2.409 2.426-95.629 94.989-2.409-2.426z"/>
        <path fill="#2F9CD3" d="M109.675 581.973l94.988 95.632-2.426 2.408-94.987-95.631zM393.29 298.324l2.409 2.426-95.627 94.996-2.41-2.425z"/>
        <path fill="#2F9CD3" d="M300 393.249l94.987 95.631-2.425 2.409-94.988-95.632zM395.631 298.26l94.985 95.632-2.426 2.408-94.984-95.63z"/>
        <path fill="#2F9CD3" d="M392.71 299.844l3.418.012-.644 190.234-3.42-.012z"/>
        <path fill="#2F9CD3" d="M298.893 392.84l190.224.642-.01 3.42-190.226-.643z"/>
        <path fill="#2F9CD3" d="M488.199 393.883l2.408 2.426-95.628 94.989-2.41-2.426z"/>
        <path fill="#2F9CD3" d="M300 393.249l94.987 95.631-2.425 2.409-94.988-95.632zM108.797 13.101l2.409 2.426-95.627 94.996-2.409-2.425z"/>
        <path fill="#2F9CD3" d="M15.507 108.026l94.988 95.631-2.426 2.409-94.987-95.632zM111.139 13.038l94.984 95.63-2.425 2.41-94.985-95.632z"/>
        <path fill="#2F9CD3" d="M108.216 14.621l3.42.012-.645 190.234-3.419-.012z"/>
        <path fill="#2F9CD3" d="M14.4 107.618l190.224.641-.01 3.42-190.225-.643z"/>
        <path fill="#2F9CD3" d="M203.706 108.66l2.408 2.426-95.628 94.989-2.41-2.426z"/>
        <path fill="#2F9CD3" d="M15.507 108.026l94.988 95.631-2.426 2.409-94.987-95.632zM203.606 298.646l2.408 2.425-95.626 94.996-2.41-2.425z"/>
        <path fill="#2F9CD3" d="M110.316 393.57l94.987 95.632-2.426 2.408-94.987-95.631zM205.947 298.581l94.985 95.632-2.426 2.409-94.985-95.632z"/>
        <path fill="#2F9CD3" d="M203.025 300.166l3.419.012-.645 190.234-3.419-.012z"/>
        <path fill="#2F9CD3" d="M109.209 393.162l190.224.642-.011 3.419-190.225-.642z"/>
        <path fill="#2F9CD3" d="M298.514 394.204l2.409 2.426-95.628 94.989-2.41-2.426z"/>
        <path fill="#2F9CD3" d="M110.316 393.57l94.987 95.632-2.426 2.408-94.987-95.631z"/>
        <path fill="#006BAE" d="M203.771 478.758c-6.033 0-10.921 4.889-10.921 10.917 0 6.03 4.888 10.917 10.921 10.917 6.028 0 10.92-4.888 10.92-10.917 0-6.028-4.892-10.917-10.92-10.917"/>
        <path fill="#FFF" d="M203.771 497.173c4.137 0 7.502-3.364 7.502-7.497 0-4.135-3.365-7.5-7.502-7.5-4.138 0-7.503 3.365-7.503 7.5 0 4.133 3.365 7.497 7.503 7.497m0-21.834c7.907 0 14.34 6.432 14.34 14.337 0 7.904-6.433 14.335-14.34 14.335-7.908 0-14.34-6.43-14.34-14.335 0-7.905 6.432-14.337 14.34-14.337"/>
        <path fill="#006BAE" d="M298.787 572.999c-6.032 0-10.92 4.89-10.92 10.917 0 6.029 4.888 10.918 10.92 10.918 6.03 0 10.922-4.889 10.922-10.918 0-6.027-4.893-10.917-10.922-10.917"/>
        <path fill="#FFF" d="M298.787 591.415c4.138 0 7.503-3.364 7.503-7.498 0-4.135-3.365-7.5-7.503-7.5-4.136 0-7.501 3.365-7.501 7.5 0 4.134 3.365 7.498 7.501 7.498m0-21.835c7.908 0 14.34 6.431 14.34 14.337 0 7.905-6.432 14.335-14.34 14.335-7.907 0-14.34-6.43-14.34-14.335 0-7.906 6.433-14.337 14.34-14.337"/>
        <path fill="#006BAE" d="M203.45 667.891c-6.034 0-10.922 4.89-10.922 10.918 0 6.029 4.888 10.917 10.922 10.917 6.028 0 10.92-4.888 10.92-10.917s-4.892-10.918-10.92-10.918"/>
        <path fill="#FFF" d="M203.45 686.308c4.136 0 7.501-3.365 7.501-7.499 0-4.135-3.365-7.499-7.501-7.499-4.138 0-7.503 3.364-7.503 7.5 0 4.133 3.365 7.498 7.503 7.498m0-21.836c7.906 0 14.339 6.432 14.339 14.337 0 7.905-6.433 14.336-14.34 14.336s-14.34-6.43-14.34-14.336c0-7.905 6.433-14.337 14.34-14.337"/>
        <path fill="#006BAE" d="M108.563 572.26c-6.033 0-10.92 4.89-10.92 10.918s4.887 10.917 10.92 10.917c6.029 0 10.921-4.889 10.921-10.917s-4.892-10.918-10.921-10.918"/>
        <path fill="#FFF" d="M108.563 590.676c4.138 0 7.502-3.364 7.502-7.497 0-4.135-3.364-7.5-7.502-7.5-4.137 0-7.502 3.365-7.502 7.5 0 4.133 3.365 7.497 7.502 7.497m0-21.835c7.908 0 14.34 6.433 14.34 14.338 0 7.904-6.432 14.335-14.34 14.335-7.907 0-14.34-6.43-14.34-14.335 0-7.905 6.433-14.338 14.34-14.338"/>
        <path fill="#006BAE" d="M299.427 384.596c-6.032 0-10.92 4.89-10.92 10.917 0 6.029 4.888 10.918 10.92 10.918 6.03 0 10.922-4.89 10.922-10.918s-4.893-10.917-10.922-10.917"/>
        <path fill="#FFF" d="M299.427 403.012c4.138 0 7.503-3.364 7.503-7.498 0-4.136-3.365-7.5-7.503-7.5-4.136 0-7.501 3.364-7.501 7.5 0 4.134 3.365 7.498 7.501 7.498m0-21.835c7.908 0 14.34 6.431 14.34 14.337 0 7.905-6.432 14.335-14.34 14.335-7.906 0-14.339-6.43-14.339-14.335 0-7.906 6.433-14.337 14.34-14.337"/>
        <path fill="#006BAE" d="M394 289.286c-6.033 0-10.92 4.89-10.92 10.918s4.887 10.917 10.92 10.917c6.029 0 10.92-4.89 10.92-10.917 0-6.029-4.891-10.918-10.92-10.918"/>
        <path fill="#FFF" d="M394 307.702c4.137 0 7.502-3.364 7.502-7.498 0-4.135-3.365-7.499-7.502-7.499s-7.502 3.364-7.502 7.5c0 4.133 3.365 7.497 7.502 7.497m0-21.834c7.907 0 14.34 6.431 14.34 14.336S401.907 314.54 394 314.54s-14.34-6.43-14.34-14.335c0-7.905 6.433-14.336 14.34-14.336"/>
        <path fill="#006BAE" d="M393.774 479.488c-6.033 0-10.921 4.89-10.921 10.917 0 6.03 4.888 10.918 10.921 10.918 6.028 0 10.92-4.889 10.92-10.918 0-6.028-4.892-10.917-10.92-10.917"/>
        <path fill="#FFF" d="M393.774 497.904c4.137 0 7.502-3.364 7.502-7.498 0-4.135-3.365-7.499-7.502-7.499s-7.502 3.364-7.502 7.5c0 4.133 3.365 7.497 7.502 7.497m0-21.835c7.907 0 14.34 6.432 14.34 14.337 0 7.905-6.433 14.336-14.34 14.336-7.908 0-14.34-6.43-14.34-14.336 0-7.905 6.432-14.337 14.34-14.337"/>
        <path fill="#006BAE" d="M109.103 383.857c-6.033 0-10.92 4.89-10.92 10.918s4.887 10.917 10.92 10.917c6.029 0 10.921-4.889 10.921-10.917s-4.892-10.918-10.921-10.918"/>
        <path fill="#FFF" d="M109.103 402.273c4.138 0 7.502-3.364 7.502-7.497 0-4.135-3.364-7.5-7.502-7.5-4.137 0-7.502 3.365-7.502 7.5 0 4.133 3.365 7.497 7.502 7.497m0-21.835c7.908 0 14.34 6.433 14.34 14.338 0 7.904-6.432 14.335-14.34 14.335-7.907 0-14.34-6.431-14.34-14.335 0-7.905 6.433-14.338 14.34-14.338"/>
        <path fill="#006BAE" d="M110.002 3.325c-6.034 0-10.922 4.889-10.922 10.917 0 6.029 4.888 10.917 10.922 10.917 6.029 0 10.92-4.888 10.92-10.917 0-6.028-4.891-10.917-10.92-10.917"/>
        <g transform="rotate(-180 62.393 14.483)">
            <mask id="b" fill="#fff">
                <use xlink:href="#a"/>
            </mask>
            <path fill="#FFF" d="M14.785 7.226c-4.137 0-7.502 3.364-7.502 7.497 0 4.135 3.365 7.5 7.502 7.5s7.502-3.365 7.502-7.5c0-4.133-3.365-7.497-7.502-7.497m0 21.834c-7.907 0-14.34-6.432-14.34-14.337C.445 6.82 6.878.388 14.785.388s14.34 6.43 14.34 14.335c0 7.905-6.433 14.337-14.34 14.337" mask="url(#b)"/>
        </g>
        <path fill="#006BAE" d="M14.395 98.313c-6.033 0-10.92 4.89-10.92 10.918s4.887 10.917 10.92 10.917c6.029 0 10.921-4.89 10.921-10.917 0-6.029-4.892-10.918-10.921-10.918"/>
        <path fill="#FFF" d="M14.395 116.729c4.137 0 7.502-3.364 7.502-7.498 0-4.135-3.365-7.499-7.502-7.499s-7.502 3.364-7.502 7.5c0 4.133 3.365 7.497 7.502 7.497m0-21.834c7.907 0 14.34 6.431 14.34 14.336s-6.433 14.335-14.34 14.335-14.34-6.43-14.34-14.335c0-7.905 6.433-14.336 14.34-14.336"/>
        <path fill="#006BAE" d="M203.771 99.051c-6.033 0-10.921 4.89-10.921 10.918s4.888 10.917 10.921 10.917c6.028 0 10.92-4.889 10.92-10.917s-4.892-10.918-10.92-10.918"/>
        <path fill="#FFF" d="M203.771 117.467c4.137 0 7.502-3.364 7.502-7.497 0-4.135-3.365-7.5-7.502-7.5-4.138 0-7.503 3.365-7.503 7.5 0 4.133 3.365 7.497 7.503 7.497m0-21.835c7.907 0 14.34 6.433 14.34 14.338 0 7.904-6.433 14.335-14.34 14.335-7.908 0-14.34-6.43-14.34-14.335 0-7.905 6.432-14.338 14.34-14.338"/>
        <path fill="#006BAE" d="M14.395 288.94c-6.033 0-10.92 4.89-10.92 10.918 0 6.03 4.887 10.918 10.92 10.918 6.029 0 10.921-4.889 10.921-10.918 0-6.027-4.892-10.917-10.921-10.917"/>
        <path fill="#FFF" d="M14.395 307.357c4.137 0 7.502-3.364 7.502-7.498 0-4.135-3.365-7.5-7.502-7.5s-7.502 3.365-7.502 7.5c0 4.134 3.365 7.498 7.502 7.498m0-21.835c7.907 0 14.34 6.432 14.34 14.337 0 7.905-6.433 14.336-14.34 14.336S.055 307.764.055 299.859s6.433-14.337 14.34-14.337"/>
        <path fill="#006BAE" d="M485.66 384.596c-6.033 0-10.92 4.89-10.92 10.917 0 6.029 4.887 10.918 10.92 10.918 6.029 0 10.92-4.89 10.92-10.918s-4.891-10.917-10.92-10.917"/>
        <path fill="#FFF" d="M485.66 403.012c4.137 0 7.502-3.364 7.502-7.498 0-4.136-3.365-7.5-7.502-7.5s-7.502 3.364-7.502 7.5c0 4.134 3.365 7.498 7.502 7.498m0-21.835c7.907 0 14.34 6.431 14.34 14.337 0 7.905-6.433 14.335-14.34 14.335s-14.34-6.43-14.34-14.335c0-7.906 6.433-14.337 14.34-14.337"/>
        <path fill="#006BAE" d="M109.603 193.944c-6.033 0-10.921 4.889-10.921 10.917 0 6.03 4.888 10.918 10.92 10.918 6.03 0 10.921-4.889 10.921-10.918 0-6.028-4.892-10.917-10.92-10.917"/>
        <path fill="#FFF" d="M109.603 212.36c4.137 0 7.502-3.364 7.502-7.498 0-4.135-3.365-7.5-7.502-7.5-4.138 0-7.503 3.365-7.503 7.5 0 4.134 3.365 7.498 7.503 7.498m0-21.835c7.907 0 14.34 6.432 14.34 14.337 0 7.905-6.433 14.336-14.34 14.336-7.908 0-14.34-6.431-14.34-14.336s6.432-14.337 14.34-14.337"/>
        <path fill="#006BAE" d="M204.81 288.87c-6.033 0-10.921 4.888-10.921 10.916 0 6.028 4.888 10.917 10.921 10.917 6.03 0 10.92-4.889 10.92-10.917s-4.89-10.917-10.92-10.917"/>
        <path fill="#FFF" d="M204.81 307.284c4.137 0 7.502-3.364 7.502-7.497 0-4.135-3.365-7.5-7.502-7.5s-7.502 3.365-7.502 7.5c0 4.133 3.365 7.497 7.502 7.497m0-21.834c7.907 0 14.34 6.432 14.34 14.337 0 7.904-6.433 14.335-14.34 14.335-7.908 0-14.34-6.43-14.34-14.335 0-7.905 6.432-14.337 14.34-14.337"/>
    </g>
</svg>
