<svg xmlns="http://www.w3.org/2000/svg" xmlns:xlink="http://www.w3.org/1999/xlink" width="300" height="417" viewBox="0 0 300 417">
    <defs>
        <path id="a" d="M.096.467h17.208V17.67H.096z"/>
    </defs>
    <g fill="none" fill-rule="evenodd">
        <path fill="#2ECCC0" d="M234.961 294.398l-1.445-1.455 57.376-56.998 1.446 1.455z"/>
        <path fill="#2ECCC0" d="M290.935 237.443l-56.992-57.379 1.456-1.445L292.39 236zM233.557 294.437l-56.991-57.38 1.455-1.445 56.991 57.38z"/>
        <path fill="#2ECCC0" d="M235.31 293.486l-2.051-.007.387-114.14 2.05.006z"/>
        <path fill="#2ECCC0" d="M291.6 237.688l-114.135-.385.007-2.051 114.134.385z"/>
        <path fill="#2ECCC0" d="M178.016 237.063l-1.445-1.456 57.377-56.993 1.446 1.455z"/>
        <path fill="#2ECCC0" d="M290.935 237.443l-56.992-57.379 1.456-1.445L292.39 236zM178.22 124.17l-1.444-1.455 57.376-56.998 1.445 1.455z"/>
        <path fill="#2ECCC0" d="M234.195 67.215L177.203 9.837l1.455-1.445L235.65 65.77zM176.816 124.209l-56.99-57.379 1.455-1.445 56.99 57.379z"/>
        <path fill="#2ECCC0" d="M178.57 123.259l-2.052-.008.387-114.14 2.051.007z"/>
        <path fill="#2ECCC0" d="M234.859 67.46l-114.134-.385.006-2.051 114.135.385z"/>
        <path fill="#2ECCC0" d="M121.276 66.835l-1.445-1.455 57.377-56.993 1.445 1.455z"/>
        <path fill="#2ECCC0" d="M234.195 67.215L177.203 9.837l1.455-1.445L235.65 65.77zM64.026 237.405l-1.445-1.456 57.376-56.997 1.446 1.455z"/>
        <path fill="#2ECCC0" d="M120 180.45l-56.992-57.379 1.455-1.445 56.993 57.379zM62.621 237.443l-56.99-57.379 1.455-1.445L64.076 236z"/>
        <path fill="#2ECCC0" d="M64.375 236.493l-2.052-.007.387-114.14 2.051.006z"/>
        <path fill="#2ECCC0" d="M120.664 180.695L6.53 180.31l.007-2.051 114.134.385z"/>
        <path fill="#2ECCC0" d="M7.081 180.07l-1.445-1.456 57.377-56.993 1.445 1.455z"/>
        <path fill="#2ECCC0" d="M120 180.45l-56.992-57.379 1.455-1.445 56.993 57.379zM234.722 408.539l-1.445-1.456 57.376-56.997 1.445 1.455z"/>
        <path fill="#2ECCC0" d="M290.696 351.584l-56.993-57.379 1.456-1.445 56.992 57.379zM233.317 408.577l-56.99-57.379 1.455-1.445 56.99 57.38z"/>
        <path fill="#2ECCC0" d="M235.07 407.627l-2.051-.007.387-114.141 2.051.007z"/>
        <path fill="#2ECCC0" d="M291.36 351.829l-114.135-.385.007-2.052 114.135.386z"/>
        <path fill="#2ECCC0" d="M177.777 351.203l-1.445-1.455 57.376-56.993 1.446 1.455z"/>
        <path fill="#2ECCC0" d="M290.696 351.584l-56.993-57.379 1.456-1.445 56.992 57.379zM177.837 237.212l-1.445-1.455 57.375-56.998 1.446 1.455z"/>
        <path fill="#2ECCC0" d="M233.81 180.257L176.82 122.88l1.455-1.445 56.992 57.378zM176.432 237.25l-56.99-57.378 1.455-1.446 56.99 57.38z"/>
        <path fill="#2ECCC0" d="M178.185 236.3l-2.051-.007.387-114.14 2.05.007z"/>
        <path fill="#2ECCC0" d="M234.475 180.502l-114.134-.385.006-2.051 114.135.385z"/>
        <path fill="#2ECCC0" d="M120.892 179.877l-1.445-1.456 57.376-56.992 1.446 1.455z"/>
        <path fill="#2ECCC0" d="M233.81 180.257L176.82 122.88l1.455-1.445 56.992 57.378z"/>
        <path fill="#0DA7A5" d="M177.738 129.145a6.551 6.551 0 1 0 0-13.1 6.553 6.553 0 0 0-6.553 6.55 6.553 6.553 0 0 0 6.553 6.55"/>
        <path fill="#FFF" d="M177.738 118.095a4.505 4.505 0 0 0-4.501 4.5c0 2.48 2.019 4.499 4.501 4.499a4.505 4.505 0 0 0 4.501-4.5 4.505 4.505 0 0 0-4.5-4.499m0 13.101c-4.746 0-8.605-3.859-8.605-8.602s3.86-8.601 8.604-8.601 8.604 3.858 8.604 8.601-3.86 8.602-8.604 8.602"/>
        <path fill="#0DA7A5" d="M120.727 72.6a6.551 6.551 0 1 0 0-13.1 6.553 6.553 0 0 0-6.552 6.55 6.553 6.553 0 0 0 6.552 6.55"/>
        <path fill="#FFF" d="M120.728 61.55a4.505 4.505 0 0 0-4.502 4.5c0 2.48 2.02 4.499 4.502 4.499a4.505 4.505 0 0 0 4.5-4.5 4.505 4.505 0 0 0-4.5-4.499m0 13.101c-4.745 0-8.604-3.859-8.604-8.602s3.86-8.601 8.604-8.601 8.603 3.858 8.603 8.601-3.86 8.602-8.603 8.602"/>
        <path fill="#0DA7A5" d="M177.93 15.665a6.552 6.552 0 1 0-6.552-6.55 6.553 6.553 0 0 0 6.552 6.55"/>
        <g transform="translate(169.23 .046)">
            <mask id="b" fill="#fff">
                <use xlink:href="#a"/>
            </mask>
            <path fill="#FFF" d="M8.7 4.57a4.505 4.505 0 0 0-4.501 4.498c0 2.48 2.019 4.5 4.5 4.5a4.505 4.505 0 0 0 4.502-4.5A4.505 4.505 0 0 0 8.7 4.569m0 13.1c-4.744 0-8.604-3.858-8.604-8.601S3.956.467 8.7.467s8.604 3.858 8.604 8.6c0 4.744-3.86 8.603-8.604 8.603" mask="url(#b)"/>
        </g>
        <path fill="#0DA7A5" d="M234.862 73.043a6.551 6.551 0 1 0 0-13.1 6.553 6.553 0 0 0-6.552 6.55 6.553 6.553 0 0 0 6.552 6.55"/>
        <path fill="#FFF" d="M234.862 61.994a4.505 4.505 0 0 0-4.501 4.499c0 2.48 2.019 4.5 4.501 4.5a4.505 4.505 0 0 0 4.501-4.5 4.505 4.505 0 0 0-4.5-4.5m0 13.102c-4.745 0-8.605-3.86-8.605-8.602 0-4.743 3.86-8.602 8.604-8.602 4.745 0 8.604 3.859 8.604 8.602s-3.86 8.602-8.604 8.602"/>
        <path fill="#0DA7A5" d="M120.343 185.642a6.551 6.551 0 1 0 0-13.1 6.553 6.553 0 0 0-6.552 6.55 6.553 6.553 0 0 0 6.552 6.55"/>
        <path fill="#FFF" d="M120.344 174.592a4.505 4.505 0 0 0-4.502 4.5c0 2.48 2.02 4.499 4.502 4.499a4.505 4.505 0 0 0 4.5-4.5 4.505 4.505 0 0 0-4.5-4.499m0 13.101c-4.745 0-8.604-3.859-8.604-8.602s3.86-8.601 8.604-8.601 8.603 3.858 8.603 8.601-3.86 8.602-8.603 8.602"/>
        <path fill="#0DA7A5" d="M63.6 242.828a6.551 6.551 0 1 0 0-13.101 6.553 6.553 0 0 0-6.552 6.55 6.553 6.553 0 0 0 6.552 6.55"/>
        <path fill="#FFF" d="M63.6 231.778a4.505 4.505 0 0 0-4.501 4.5c0 2.48 2.019 4.499 4.501 4.499a4.505 4.505 0 0 0 4.501-4.5 4.505 4.505 0 0 0-4.5-4.499m0 13.101c-4.745 0-8.605-3.859-8.605-8.602s3.86-8.601 8.604-8.601c4.745 0 8.604 3.858 8.604 8.601s-3.86 8.602-8.604 8.602"/>
        <path fill="#0DA7A5" d="M63.736 128.707a6.551 6.551 0 1 0 0-13.101 6.553 6.553 0 0 0-6.553 6.55 6.553 6.553 0 0 0 6.553 6.55"/>
        <path fill="#FFF" d="M63.736 117.657a4.505 4.505 0 0 0-4.501 4.499c0 2.48 2.019 4.5 4.5 4.5a4.505 4.505 0 0 0 4.502-4.5 4.505 4.505 0 0 0-4.501-4.499m0 13.1c-4.744 0-8.604-3.858-8.604-8.601s3.86-8.601 8.604-8.601 8.604 3.858 8.604 8.6c0 4.744-3.86 8.603-8.604 8.603"/>
        <path fill="#0DA7A5" d="M234.538 186.085a6.551 6.551 0 1 0 0-13.1 6.553 6.553 0 0 0-6.552 6.55 6.553 6.553 0 0 0 6.552 6.55"/>
        <path fill="#FFF" d="M234.538 175.035a4.505 4.505 0 0 0-4.501 4.5c0 2.48 2.019 4.499 4.501 4.499a4.505 4.505 0 0 0 4.501-4.5 4.505 4.505 0 0 0-4.5-4.499m0 13.102c-4.745 0-8.605-3.86-8.605-8.603s3.86-8.601 8.604-8.601c4.745 0 8.604 3.858 8.604 8.601 0 4.744-3.86 8.603-8.604 8.603"/>
        <path fill="#0DA7A5" d="M234 414.405a6.551 6.551 0 1 0 0-13.101 6.553 6.553 0 0 0-6.554 6.55 6.553 6.553 0 0 0 6.553 6.551"/>
        <path fill="#FFF" d="M234 403.355a4.505 4.505 0 0 0-4.502 4.5c0 2.48 2.019 4.499 4.501 4.499a4.505 4.505 0 0 0 4.502-4.5 4.505 4.505 0 0 0-4.502-4.499m0 13.101c-4.744 0-8.604-3.859-8.604-8.602s3.86-8.601 8.604-8.601c4.745 0 8.604 3.858 8.604 8.601s-3.86 8.602-8.604 8.602"/>
        <path fill="#0DA7A5" d="M291.363 357.412a6.551 6.551 0 1 0 0-13.101 6.553 6.553 0 0 0-6.552 6.55 6.553 6.553 0 0 0 6.552 6.55"/>
        <path fill="#FFF" d="M291.363 346.362a4.505 4.505 0 0 0-4.501 4.5c0 2.48 2.019 4.499 4.501 4.499a4.505 4.505 0 0 0 4.501-4.5 4.505 4.505 0 0 0-4.5-4.499m0 13.101c-4.745 0-8.605-3.859-8.605-8.602s3.86-8.601 8.604-8.601 8.604 3.858 8.604 8.601-3.86 8.602-8.604 8.602"/>
        <path fill="#0DA7A5" d="M177.738 356.969a6.551 6.551 0 1 0 0-13.1 6.552 6.552 0 0 0-6.553 6.55 6.553 6.553 0 0 0 6.553 6.55"/>
        <path fill="#FFF" d="M177.738 345.919a4.505 4.505 0 0 0-4.501 4.499c0 2.48 2.019 4.5 4.501 4.5a4.505 4.505 0 0 0 4.501-4.5 4.505 4.505 0 0 0-4.5-4.5m0 13.102c-4.746 0-8.605-3.859-8.605-8.602s3.86-8.602 8.604-8.602 8.604 3.859 8.604 8.602-3.86 8.602-8.604 8.602"/>
        <path fill="#0DA7A5" d="M291.363 243.035a6.551 6.551 0 1 0 0-13.1 6.553 6.553 0 0 0-6.552 6.55 6.553 6.553 0 0 0 6.552 6.55"/>
        <path fill="#FFF" d="M291.363 231.986a4.505 4.505 0 0 0-4.501 4.498c0 2.481 2.019 4.5 4.501 4.5a4.505 4.505 0 0 0 4.501-4.5 4.505 4.505 0 0 0-4.5-4.498m0 13.1c-4.745 0-8.605-3.859-8.605-8.602 0-4.742 3.86-8.6 8.604-8.6s8.604 3.858 8.604 8.6c0 4.743-3.86 8.602-8.604 8.602"/>
        <path fill="#0DA7A5" d="M8.604 185.642a6.551 6.551 0 1 0 0-13.1 6.553 6.553 0 0 0-6.552 6.55 6.553 6.553 0 0 0 6.552 6.55"/>
        <path fill="#FFF" d="M8.604 174.592a4.505 4.505 0 0 0-4.501 4.5c0 2.48 2.019 4.499 4.501 4.499a4.505 4.505 0 0 0 4.501-4.5 4.505 4.505 0 0 0-4.5-4.499m0 13.101c-4.745 0-8.605-3.859-8.605-8.602s3.86-8.601 8.604-8.601c4.745 0 8.604 3.858 8.604 8.601s-3.86 8.602-8.604 8.602"/>
        <path fill="#0DA7A5" d="M234.238 300.033a6.551 6.551 0 0 0 0-13.101 6.553 6.553 0 0 0-6.552 6.55 6.553 6.553 0 0 0 6.552 6.551"/>
        <path fill="#FFF" d="M234.238 288.984a4.505 4.505 0 0 0-4.5 4.498c0 2.481 2.018 4.5 4.5 4.5a4.505 4.505 0 0 0 4.502-4.5 4.505 4.505 0 0 0-4.502-4.498m0 13.1c-4.744 0-8.603-3.859-8.603-8.602 0-4.742 3.86-8.6 8.603-8.6 4.745 0 8.605 3.858 8.605 8.6 0 4.743-3.86 8.602-8.605 8.602"/>
        <path fill="#0DA7A5" d="M177.114 243.078a6.55 6.55 0 1 0 0-13.1 6.553 6.553 0 0 0-6.553 6.55 6.553 6.553 0 0 0 6.553 6.55"/>
        <path fill="#FFF" d="M177.114 232.029a4.505 4.505 0 0 0-4.5 4.499c0 2.48 2.018 4.5 4.5 4.5a4.505 4.505 0 0 0 4.502-4.5 4.505 4.505 0 0 0-4.502-4.5m0 13.102c-4.744 0-8.603-3.86-8.603-8.602 0-4.743 3.859-8.602 8.603-8.602 4.745 0 8.604 3.859 8.604 8.602s-3.86 8.602-8.604 8.602"/>
    </g>
</svg>
