<svg xmlns="http://www.w3.org/2000/svg" width="300" height="417" viewBox="0 0 300 417">
    <g fill="none" fill-rule="evenodd">
        <path fill="#D3F4F1" d="M235.26 294.485l-1.436-1.455 57.019-57 1.436 1.454z"/>
        <path fill="#D3F4F1" d="M290.824 237.132l-57-57.019 1.455-1.437 57 57.02zM234.574 294.485l-57-57.02 1.455-1.436 57 57.02z"/>
        <path fill="#D3F4F1" d="M235.505 293.382l-2.784-.007.524-113.596 2.784.008z"/>
        <path fill="#D3F4F1" d="M291.17 239.338l-113.596-.523.006-2.786 113.596.523z"/>
        <path fill="#D3F4F1" d="M179.01 237.132l-1.436-1.455 57.019-57 1.436 1.455z"/>
        <path fill="#D3F4F1" d="M290.824 237.132l-57-57.019 1.455-1.437 57 57.02zM179.01 124.632l-1.436-1.455 57.019-57 1.436 1.454z"/>
        <path fill="#D3F4F1" d="M234.574 67.28l-57-57.02 1.455-1.436 57 57.019zM177.22 124.632l-57-57.019 1.456-1.437 57 57.02z"/>
        <path fill="#D3F4F1" d="M180.358 122.426l-2.784-.007.524-113.595 2.784.006z"/>
        <path fill="#D3F4F1" d="M233.816 67.28l-113.595-.524.006-2.785 113.597.523z"/>
        <path fill="#D3F4F1" d="M121.657 67.28l-1.436-1.456 57.019-57 1.436 1.455z"/>
        <path fill="#D3F4F1" d="M234.574 67.28l-57-57.02 1.455-1.436 57 57.019zM64.304 237.132l-1.436-1.455 57.019-57 1.437 1.455z"/>
        <path fill="#D3F4F1" d="M119.868 179.78l-57-57.02 1.455-1.436 57 57.019zM62.515 237.132l-57-57.02 1.455-1.436 57 57.02z"/>
        <path fill="#D3F4F1" d="M65.652 236.03l-2.784-.008.524-113.596 2.784.008z"/>
        <path fill="#D3F4F1" d="M119.11 181.985l-113.595-.523.006-2.786 113.597.524z"/>
        <path fill="#D3F4F1" d="M6.95 179.78l-1.435-1.456 57.019-57 1.437 1.455z"/>
        <path fill="#D3F4F1" d="M119.868 179.78l-57-57.02 1.455-1.436 57 57.019zM234.157 408.088l-1.436-1.455 57.019-57 1.436 1.454z"/>
        <path fill="#D3F4F1" d="M290.824 350.735l-57-57.02 1.455-1.436 57 57.02zM232.368 408.088l-57-57.02 1.455-1.436 57 57.02z"/>
        <path fill="#D3F4F1" d="M235.505 408.088l-2.784-.007.524-113.596 2.784.007z"/>
        <path fill="#D3F4F1" d="M291.17 352.941l-113.596-.523.006-2.786 113.596.523z"/>
        <path fill="#D3F4F1" d="M176.804 350.735l-1.436-1.455 57.019-57 1.437 1.455zM290.824 350.735l-57-57.02 1.455-1.436 57 57.02zM179.01 237.132l-1.436-1.455 57.019-57 1.436 1.455z"/>
        <path fill="#D3F4F1" d="M234.574 179.78l-57-57.02 1.455-1.436 57 57.019zM177.22 237.132l-57-57.02 1.456-1.436 57 57.02z"/>
        <path fill="#D3F4F1" d="M178.152 236.03l-2.784-.008.524-113.596 2.784.008z"/>
        <path fill="#D3F4F1" d="M233.816 181.985l-113.595-.523.006-2.786 113.597.524z"/>
        <path fill="#D3F4F1" d="M121.657 179.78l-1.436-1.456 57.019-57 1.436 1.455z"/>
        <path fill="#D3F4F1" d="M234.574 179.78l-57-57.02 1.455-1.436 57 57.019z"/>
        <path fill="#FFF" d="M177.738 129.254a6.555 6.555 0 0 0 6.552-6.558 6.555 6.555 0 0 0-6.552-6.558 6.556 6.556 0 0 0-6.553 6.558 6.557 6.557 0 0 0 6.553 6.558"/>
        <path fill="#0DA7A5" d="M177.738 118.192a4.508 4.508 0 0 0-4.501 4.504 4.508 4.508 0 0 0 4.501 4.505 4.508 4.508 0 0 0 4.501-4.505 4.508 4.508 0 0 0-4.5-4.504m0 13.116c-4.746 0-8.605-3.863-8.605-8.612 0-4.749 3.86-8.612 8.604-8.612s8.604 3.863 8.604 8.612c0 4.749-3.86 8.612-8.604 8.612"/>
        <path fill="#FFF" d="M120.727 72.642a6.555 6.555 0 0 0 6.553-6.559 6.555 6.555 0 0 0-6.553-6.558 6.557 6.557 0 0 0-6.552 6.558 6.557 6.557 0 0 0 6.552 6.559"/>
        <path fill="#0DA7A5" d="M120.728 61.579a4.508 4.508 0 0 0-4.502 4.504 4.508 4.508 0 0 0 4.502 4.505 4.508 4.508 0 0 0 4.5-4.505 4.508 4.508 0 0 0-4.5-4.504m0 13.116c-4.745 0-8.604-3.863-8.604-8.612 0-4.749 3.86-8.612 8.604-8.612s8.603 3.863 8.603 8.612c0 4.749-3.86 8.612-8.603 8.612"/>
        <path fill="#FFF" d="M177.93 15.638a6.555 6.555 0 0 0 6.553-6.559 6.555 6.555 0 0 0-6.553-6.558 6.557 6.557 0 0 0-6.552 6.558 6.557 6.557 0 0 0 6.552 6.559"/>
        <path fill="#0DA7A5" d="M177.93 4.575a4.508 4.508 0 0 0-4.5 4.504 4.508 4.508 0 0 0 4.5 4.505 4.508 4.508 0 0 0 4.502-4.505 4.508 4.508 0 0 0-4.502-4.504m0 13.116c-4.744 0-8.603-3.863-8.603-8.612 0-4.748 3.86-8.612 8.603-8.612 4.745 0 8.605 3.864 8.605 8.612 0 4.75-3.86 8.612-8.605 8.612"/>
        <path fill="#FFF" d="M234.862 73.085a6.555 6.555 0 0 0 6.553-6.558 6.555 6.555 0 0 0-6.553-6.558 6.557 6.557 0 0 0-6.552 6.558 6.557 6.557 0 0 0 6.552 6.558"/>
        <path fill="#0DA7A5" d="M234.862 62.023a4.508 4.508 0 0 0-4.501 4.504 4.508 4.508 0 0 0 4.501 4.504 4.508 4.508 0 0 0 4.501-4.504 4.508 4.508 0 0 0-4.5-4.504m0 13.116c-4.745 0-8.605-3.863-8.605-8.612 0-4.749 3.86-8.612 8.604-8.612 4.745 0 8.604 3.863 8.604 8.612 0 4.749-3.86 8.612-8.604 8.612"/>
        <path fill="#FFF" d="M120.343 185.82a6.555 6.555 0 0 0 6.553-6.559 6.555 6.555 0 0 0-6.553-6.558 6.557 6.557 0 0 0-6.552 6.558 6.557 6.557 0 0 0 6.552 6.559"/>
        <path fill="#0DA7A5" d="M120.344 174.757a4.508 4.508 0 0 0-4.502 4.504 4.508 4.508 0 0 0 4.502 4.505 4.508 4.508 0 0 0 4.5-4.505 4.508 4.508 0 0 0-4.5-4.504m0 13.116c-4.745 0-8.604-3.863-8.604-8.612 0-4.749 3.86-8.612 8.604-8.612s8.603 3.863 8.603 8.612c0 4.749-3.86 8.612-8.603 8.612"/>
        <path fill="#FFF" d="M63.6 243.074a6.555 6.555 0 0 0 6.553-6.558 6.555 6.555 0 0 0-6.553-6.558 6.557 6.557 0 0 0-6.552 6.558 6.557 6.557 0 0 0 6.552 6.558"/>
        <path fill="#0DA7A5" d="M63.6 232.011a4.508 4.508 0 0 0-4.501 4.505 4.508 4.508 0 0 0 4.501 4.505 4.508 4.508 0 0 0 4.501-4.505 4.508 4.508 0 0 0-4.5-4.505m0 13.117c-4.745 0-8.605-3.864-8.605-8.612 0-4.75 3.86-8.612 8.604-8.612 4.745 0 8.604 3.863 8.604 8.612 0 4.748-3.86 8.612-8.604 8.612"/>
        <path fill="#FFF" d="M63.736 128.816a6.555 6.555 0 0 0 6.552-6.559 6.555 6.555 0 0 0-6.552-6.558 6.557 6.557 0 0 0-6.553 6.558 6.557 6.557 0 0 0 6.553 6.559"/>
        <path fill="#0DA7A5" d="M63.736 117.753a4.508 4.508 0 0 0-4.501 4.504 4.508 4.508 0 0 0 4.5 4.505 4.508 4.508 0 0 0 4.502-4.505 4.508 4.508 0 0 0-4.501-4.504m0 13.116c-4.744 0-8.604-3.863-8.604-8.612 0-4.748 3.86-8.612 8.604-8.612s8.604 3.864 8.604 8.612c0 4.75-3.86 8.612-8.604 8.612"/>
        <path fill="#FFF" d="M234.538 186.263a6.555 6.555 0 0 0 6.553-6.558 6.555 6.555 0 0 0-6.553-6.558 6.557 6.557 0 0 0-6.552 6.558 6.557 6.557 0 0 0 6.552 6.558"/>
        <path fill="#0DA7A5" d="M234.538 175.2a4.508 4.508 0 0 0-4.501 4.505 4.508 4.508 0 0 0 4.501 4.504 4.508 4.508 0 0 0 4.501-4.504 4.508 4.508 0 0 0-4.5-4.504m0 13.116c-4.745 0-8.605-3.863-8.605-8.612 0-4.749 3.86-8.612 8.604-8.612 4.745 0 8.604 3.863 8.604 8.612 0 4.749-3.86 8.612-8.604 8.612"/>
        <path fill="#FFF" d="M234 414.858a6.555 6.555 0 0 0 6.551-6.558A6.555 6.555 0 0 0 234 401.74a6.557 6.557 0 0 0-6.553 6.559 6.557 6.557 0 0 0 6.553 6.558"/>
        <path fill="#0DA7A5" d="M234 403.795a4.508 4.508 0 0 0-4.502 4.504 4.508 4.508 0 0 0 4.501 4.505 4.508 4.508 0 0 0 4.502-4.505 4.508 4.508 0 0 0-4.502-4.504m0 13.117c-4.744 0-8.604-3.864-8.604-8.613 0-4.748 3.86-8.612 8.604-8.612 4.745 0 8.604 3.864 8.604 8.612 0 4.75-3.86 8.613-8.604 8.613"/>
        <path fill="#FFF" d="M291.363 357.796a6.555 6.555 0 0 0 6.553-6.558 6.555 6.555 0 0 0-6.553-6.558 6.557 6.557 0 0 0-6.552 6.558 6.557 6.557 0 0 0 6.552 6.558"/>
        <path fill="#0DA7A5" d="M291.363 346.733a4.508 4.508 0 0 0-4.501 4.504 4.508 4.508 0 0 0 4.501 4.505 4.508 4.508 0 0 0 4.501-4.505 4.508 4.508 0 0 0-4.5-4.504m0 13.117c-4.745 0-8.605-3.864-8.605-8.613 0-4.748 3.86-8.611 8.604-8.611s8.604 3.863 8.604 8.611c0 4.75-3.86 8.613-8.604 8.613"/>
        <path fill="#FFF" d="M177.738 357.352a6.555 6.555 0 0 0 6.552-6.558 6.555 6.555 0 0 0-6.552-6.558 6.556 6.556 0 0 0-6.553 6.558 6.557 6.557 0 0 0 6.553 6.558"/>
        <path fill="#0DA7A5" d="M177.738 346.29a4.508 4.508 0 0 0-4.501 4.504 4.508 4.508 0 0 0 4.501 4.505 4.508 4.508 0 0 0 4.501-4.505 4.508 4.508 0 0 0-4.5-4.505m0 13.117c-4.746 0-8.605-3.863-8.605-8.612 0-4.75 3.86-8.612 8.604-8.612s8.604 3.863 8.604 8.612c0 4.749-3.86 8.612-8.604 8.612"/>
        <path fill="#FFF" d="M291.363 243.282a6.556 6.556 0 0 0 6.553-6.558 6.555 6.555 0 0 0-6.553-6.559 6.557 6.557 0 0 0-6.552 6.559 6.557 6.557 0 0 0 6.552 6.558"/>
        <path fill="#0DA7A5" d="M291.363 232.219a4.508 4.508 0 0 0-4.501 4.504 4.508 4.508 0 0 0 4.501 4.505 4.508 4.508 0 0 0 4.501-4.505 4.508 4.508 0 0 0-4.5-4.504m0 13.116c-4.745 0-8.605-3.864-8.605-8.612 0-4.749 3.86-8.612 8.604-8.612s8.604 3.863 8.604 8.612c0 4.748-3.86 8.612-8.604 8.612"/>
        <path fill="#FFF" d="M8.604 185.82a6.555 6.555 0 0 0 6.553-6.559 6.555 6.555 0 0 0-6.553-6.558 6.557 6.557 0 0 0-6.552 6.558 6.557 6.557 0 0 0 6.552 6.559"/>
        <path fill="#0DA7A5" d="M8.604 174.757a4.508 4.508 0 0 0-4.501 4.504 4.508 4.508 0 0 0 4.501 4.505 4.508 4.508 0 0 0 4.501-4.505 4.508 4.508 0 0 0-4.5-4.504m0 13.116C3.86 187.873 0 184.01 0 179.261c0-4.749 3.86-8.612 8.604-8.612 4.745 0 8.604 3.863 8.604 8.612 0 4.749-3.86 8.612-8.604 8.612"/>
        <path fill="#FFF" d="M234.238 300.349a6.556 6.556 0 0 0 6.553-6.559 6.555 6.555 0 0 0-6.553-6.558 6.557 6.557 0 0 0-6.552 6.558 6.557 6.557 0 0 0 6.552 6.559"/>
        <path fill="#0DA7A5" d="M234.238 289.286a4.508 4.508 0 0 0-4.5 4.504 4.508 4.508 0 0 0 4.5 4.504 4.508 4.508 0 0 0 4.502-4.504 4.508 4.508 0 0 0-4.502-4.504m0 13.116c-4.744 0-8.603-3.864-8.603-8.612 0-4.749 3.86-8.612 8.603-8.612 4.745 0 8.605 3.863 8.605 8.612 0 4.748-3.86 8.612-8.605 8.612"/>
        <path fill="#FFF" d="M177.114 243.325a6.555 6.555 0 0 0 6.552-6.558 6.555 6.555 0 0 0-6.552-6.558 6.557 6.557 0 0 0-6.553 6.558 6.557 6.557 0 0 0 6.553 6.558"/>
        <path fill="#0DA7A5" d="M177.114 232.262a4.508 4.508 0 0 0-4.5 4.504 4.508 4.508 0 0 0 4.5 4.505 4.508 4.508 0 0 0 4.502-4.505 4.508 4.508 0 0 0-4.502-4.504m0 13.117c-4.744 0-8.603-3.864-8.603-8.613 0-4.748 3.859-8.612 8.603-8.612 4.745 0 8.604 3.864 8.604 8.612 0 4.75-3.86 8.613-8.604 8.613"/>
    </g>
</svg>
