<svg xmlns="http://www.w3.org/2000/svg" xmlns:xlink="http://www.w3.org/1999/xlink" width="500" height="693" viewBox="0 0 500 693">
    <defs>
        <path id="a" d="M.444.387h28.68v28.555H.444z"/>
        <path id="c" d="M0 .312h28.68v28.556H0z"/>
    </defs>
    <g fill="none" fill-rule="evenodd">
        <path fill="#F9B491" d="M108.398 204.328l2.409 2.416-95.626 94.61-2.41-2.415z"/>
        <path fill="#F9B491" d="M15.108 298.868l94.988 95.242-2.426 2.4-94.987-95.243zM110.74 204.265l94.984 95.243-2.425 2.398-94.985-95.242z"/>
        <path fill="#F9B491" d="M107.818 205.842l3.418.012-.644 189.462-3.419-.012z"/>
        <path fill="#F9B491" d="M14.002 298.46l190.223.64-.01 3.405-190.225-.64z"/>
        <path fill="#F9B491" d="M203.307 299.499l2.408 2.416-95.628 94.603-2.41-2.416z"/>
        <path fill="#F9B491" d="M15.108 298.868l94.988 95.242-2.426 2.4-94.987-95.243zM202.966 486.89l2.408 2.415-95.626 94.61-2.41-2.415z"/>
        <path fill="#F9B491" d="M109.675 581.428l94.988 95.243-2.426 2.4-94.987-95.244zM205.307 486.825l94.984 95.243-2.425 2.4-94.985-95.244z"/>
        <path fill="#F9B491" d="M202.385 488.403l3.418.012-.644 189.462-3.419-.012z"/>
        <path fill="#F9B491" d="M108.57 581.022l190.224.639-.012 3.405-190.224-.64z"/>
        <path fill="#F9B491" d="M297.874 582.06l2.41 2.416-95.63 94.603-2.409-2.416z"/>
        <path fill="#F9B491" d="M109.675 581.428l94.988 95.243-2.426 2.4-94.987-95.244zM393.29 298.931l2.41 2.416-95.627 94.61-2.41-2.415z"/>
        <path fill="#F9B491" d="M300 393.47l94.987 95.243-2.426 2.399-94.986-95.243zM395.631 298.868l94.985 95.242-2.426 2.4-94.984-95.243z"/>
        <path fill="#F9B491" d="M392.71 300.445l3.418.012-.644 189.461-3.42-.011z"/>
        <path fill="#F9B491" d="M298.894 393.064l190.224.639-.012 3.405-190.224-.64z"/>
        <path fill="#F9B491" d="M488.199 394.102l2.409 2.416-95.629 94.603-2.41-2.416z"/>
        <path fill="#F9B491" d="M300 393.47l94.987 95.243-2.426 2.399-94.986-95.243zM108.797 14.866l2.409 2.416-95.626 94.61-2.41-2.415z"/>
        <path fill="#F9B491" d="M15.508 109.405l94.986 95.244-2.425 2.398-94.987-95.243zM111.139 14.803l94.984 95.243-2.425 2.398-94.985-95.242z"/>
        <path fill="#F9B491" d="M108.216 16.38l3.42.012-.645 189.462-3.419-.012z"/>
        <path fill="#F9B491" d="M14.401 108.999l190.224.64-.01 3.404-190.226-.64z"/>
        <path fill="#F9B491" d="M203.706 110.037l2.408 2.416-95.628 94.603-2.41-2.416z"/>
        <path fill="#F9B491" d="M15.508 109.405l94.986 95.244-2.425 2.398-94.987-95.243zM203.606 299.251l2.408 2.416-95.626 94.61-2.41-2.415z"/>
        <path fill="#F9B491" d="M110.316 393.79l94.987 95.243-2.426 2.4-94.987-95.244zM205.947 299.187l94.985 95.243-2.426 2.4-94.985-95.244z"/>
        <path fill="#F9B491" d="M203.025 300.765l3.419.012-.645 189.461-3.419-.011z"/>
        <path fill="#F9B491" d="M109.21 393.384l190.224.639-.012 3.405-190.224-.64z"/>
        <path fill="#F9B491" d="M298.514 394.422l2.41 2.416-95.63 94.603-2.408-2.416z"/>
        <path fill="#F9B491" d="M110.316 393.79l94.987 95.243-2.426 2.4-94.987-95.244z"/>
        <path fill="#F35C00" d="M203.771 478.632c-6.033 0-10.921 4.87-10.921 10.873 0 6.004 4.888 10.873 10.921 10.873 6.03 0 10.921-4.869 10.921-10.873s-4.892-10.873-10.921-10.873"/>
        <path fill="#FFF" d="M203.771 496.973c4.137 0 7.503-3.35 7.503-7.467 0-4.119-3.366-7.47-7.503-7.47-4.138 0-7.503 3.351-7.503 7.47 0 4.116 3.365 7.467 7.503 7.467m0-21.746c7.907 0 14.34 6.406 14.34 14.279 0 7.872-6.433 14.276-14.34 14.276-7.908 0-14.34-6.404-14.34-14.276 0-7.873 6.432-14.279 14.34-14.279"/>
        <path fill="#F35C00" d="M298.788 572.49c-6.033 0-10.922 4.87-10.922 10.873 0 6.005 4.89 10.874 10.922 10.874 6.029 0 10.921-4.87 10.921-10.874 0-6.003-4.892-10.873-10.921-10.873"/>
        <path fill="#FFF" d="M298.788 590.831c4.136 0 7.502-3.35 7.502-7.467 0-4.119-3.366-7.47-7.502-7.47-4.137 0-7.503 3.351-7.503 7.47 0 4.117 3.366 7.467 7.503 7.467m0-21.746c7.906 0 14.34 6.406 14.34 14.279s-6.434 14.277-14.34 14.277c-7.907 0-14.34-6.404-14.34-14.277 0-7.873 6.433-14.279 14.34-14.279"/>
        <path fill="#F35C00" d="M203.45 666.997c-6.034 0-10.922 4.87-10.922 10.873 0 6.005 4.888 10.874 10.922 10.874 6.029 0 10.921-4.87 10.921-10.874 0-6.003-4.892-10.873-10.921-10.873"/>
        <path fill="#FFF" d="M203.45 685.339c4.136 0 7.502-3.35 7.502-7.468s-3.366-7.469-7.502-7.469c-4.138 0-7.503 3.35-7.503 7.469 0 4.117 3.365 7.468 7.503 7.468m0-21.747c7.906 0 14.34 6.406 14.34 14.279s-6.434 14.278-14.34 14.278c-7.908 0-14.34-6.405-14.34-14.278s6.432-14.279 14.34-14.279"/>
        <path fill="#F35C00" d="M108.564 571.754c-6.034 0-10.922 4.87-10.922 10.874 0 6.004 4.888 10.873 10.922 10.873 6.028 0 10.92-4.87 10.92-10.873 0-6.004-4.892-10.874-10.92-10.874"/>
        <path fill="#FFF" d="M108.564 590.096c4.136 0 7.501-3.35 7.501-7.467 0-4.118-3.365-7.47-7.501-7.47-4.138 0-7.503 3.352-7.503 7.47 0 4.116 3.365 7.467 7.503 7.467m0-21.747c7.907 0 14.339 6.407 14.339 14.28 0 7.872-6.432 14.277-14.34 14.277-7.907 0-14.34-6.405-14.34-14.277 0-7.873 6.433-14.28 14.34-14.28"/>
        <path fill="#F35C00" d="M299.428 384.852c-6.033 0-10.922 4.87-10.922 10.873 0 6.004 4.89 10.874 10.922 10.874 6.029 0 10.921-4.87 10.921-10.874 0-6.003-4.892-10.873-10.921-10.873"/>
        <path fill="#FFF" d="M299.428 403.194c4.137 0 7.502-3.35 7.502-7.468 0-4.119-3.365-7.469-7.502-7.469s-7.503 3.35-7.503 7.469c0 4.117 3.366 7.468 7.503 7.468m0-21.747c7.907 0 14.34 6.406 14.34 14.279s-6.433 14.277-14.34 14.277-14.34-6.404-14.34-14.277c0-7.873 6.433-14.279 14.34-14.279"/>
        <path fill="#F35C00" d="M394 289.93c-6.032 0-10.921 4.87-10.921 10.873 0 6.004 4.889 10.873 10.921 10.873 6.03 0 10.921-4.87 10.921-10.873 0-6.004-4.892-10.873-10.921-10.873"/>
        <path fill="#FFF" d="M394 308.27c4.137 0 7.503-3.35 7.503-7.466 0-4.119-3.366-7.47-7.503-7.47-4.137 0-7.503 3.351-7.503 7.47 0 4.116 3.366 7.467 7.503 7.467m0-21.746c7.907 0 14.34 6.406 14.34 14.279 0 7.872-6.433 14.276-14.34 14.276s-14.34-6.404-14.34-14.276c0-7.873 6.433-14.279 14.34-14.279"/>
        <path fill="#F35C00" d="M393.774 479.36c-6.032 0-10.921 4.868-10.921 10.872 0 6.005 4.889 10.874 10.921 10.874 6.03 0 10.922-4.87 10.922-10.874 0-6.004-4.893-10.873-10.922-10.873"/>
        <path fill="#FFF" d="M393.774 497.7c4.137 0 7.503-3.35 7.503-7.467 0-4.118-3.366-7.469-7.503-7.469-4.137 0-7.502 3.35-7.502 7.469 0 4.117 3.365 7.468 7.502 7.468m0-21.747c7.907 0 14.34 6.406 14.34 14.279s-6.433 14.278-14.34 14.278-14.34-6.405-14.34-14.278 6.433-14.279 14.34-14.279"/>
        <path fill="#F35C00" d="M109.103 384.117c-6.033 0-10.92 4.87-10.92 10.873 0 6.004 4.887 10.873 10.92 10.873 6.029 0 10.921-4.87 10.921-10.873 0-6.004-4.892-10.873-10.921-10.873"/>
        <path fill="#FFF" d="M109.103 402.458c4.138 0 7.502-3.35 7.502-7.467 0-4.118-3.364-7.47-7.502-7.47-4.137 0-7.502 3.352-7.502 7.47 0 4.116 3.365 7.467 7.502 7.467m0-21.747c7.908 0 14.34 6.407 14.34 14.28 0 7.872-6.432 14.277-14.34 14.277-7.907 0-14.34-6.405-14.34-14.277 0-7.873 6.433-14.28 14.34-14.28"/>
        <path fill="#F35C00" d="M110.002 5.13c-6.033 0-10.92 4.869-10.92 10.872 0 6.005 4.887 10.873 10.92 10.873 6.029 0 10.921-4.868 10.921-10.873 0-6.003-4.892-10.872-10.921-10.872"/>
        <g transform="rotate(-180 62.393 15.333)">
            <mask id="b" fill="#fff">
                <use xlink:href="#a"/>
            </mask>
            <path fill="#FFF" d="M14.785 7.196c-4.138 0-7.503 3.35-7.503 7.467 0 4.119 3.365 7.47 7.503 7.47 4.136 0 7.501-3.351 7.501-7.47 0-4.116-3.365-7.467-7.501-7.467m0 21.746c-7.908 0-14.34-6.406-14.34-14.279C.444 6.791 6.876.387 14.784.387c7.906 0 14.339 6.404 14.339 14.276 0 7.873-6.433 14.279-14.34 14.279" mask="url(#b)"/>
        </g>
        <path fill="#F35C00" d="M14.396 99.733c-6.034 0-10.922 4.869-10.922 10.872 0 6.004 4.888 10.873 10.922 10.873 6.028 0 10.92-4.869 10.92-10.873 0-6.003-4.892-10.872-10.92-10.872"/>
        <path fill="#FFF" d="M14.396 118.073c4.136 0 7.501-3.35 7.501-7.467 0-4.118-3.365-7.469-7.501-7.469-4.138 0-7.503 3.35-7.503 7.47 0 4.116 3.365 7.466 7.503 7.466m0-21.745c7.906 0 14.339 6.405 14.339 14.278 0 7.872-6.433 14.277-14.34 14.277S.056 118.478.056 110.606c0-7.873 6.433-14.278 14.34-14.278"/>
        <path fill="#F35C00" d="M203.771 100.467c-6.033 0-10.921 4.87-10.921 10.874 0 6.004 4.888 10.873 10.921 10.873 6.03 0 10.921-4.87 10.921-10.873 0-6.004-4.892-10.874-10.921-10.874"/>
        <path fill="#FFF" d="M203.771 118.809c4.137 0 7.503-3.35 7.503-7.467 0-4.118-3.366-7.47-7.503-7.47-4.138 0-7.503 3.352-7.503 7.47 0 4.116 3.365 7.467 7.503 7.467m0-21.747c7.907 0 14.34 6.407 14.34 14.28 0 7.872-6.433 14.277-14.34 14.277-7.908 0-14.34-6.405-14.34-14.277 0-7.873 6.432-14.28 14.34-14.28"/>
        <path fill="#F35C00" d="M14.396 289.586c-6.034 0-10.922 4.87-10.922 10.873 0 6.004 4.888 10.873 10.922 10.873 6.028 0 10.92-4.869 10.92-10.873 0-6.003-4.892-10.873-10.92-10.873"/>
        <path fill="#FFF" d="M14.396 307.927c4.136 0 7.501-3.35 7.501-7.468s-3.365-7.468-7.501-7.468c-4.138 0-7.503 3.35-7.503 7.468s3.365 7.468 7.503 7.468m0-21.746c7.906 0 14.339 6.405 14.339 14.278s-6.433 14.278-14.34 14.278S.056 308.332.056 300.46s6.433-14.278 14.34-14.278"/>
        <path fill="#F35C00" d="M485.66 384.852c-6.032 0-10.921 4.87-10.921 10.873 0 6.004 4.889 10.874 10.921 10.874 6.03 0 10.921-4.87 10.921-10.874 0-6.003-4.892-10.873-10.921-10.873"/>
        <g transform="rotate(-180 250 205.158)">
            <mask id="d" fill="#fff">
                <use xlink:href="#c"/>
            </mask>
            <path fill="#FFF" d="M14.34 7.122c-4.137 0-7.503 3.35-7.503 7.467 0 4.119 3.366 7.47 7.503 7.47 4.137 0 7.503-3.351 7.503-7.47 0-4.117-3.366-7.467-7.503-7.467m0 21.746C6.433 28.868 0 22.462 0 14.589S6.433.312 14.34.312s14.34 6.404 14.34 14.277c0 7.873-6.433 14.279-14.34 14.279" mask="url(#d)"/>
        </g>
        <path fill="#F35C00" d="M109.603 194.975c-6.033 0-10.921 4.869-10.921 10.872 0 6.005 4.888 10.874 10.92 10.874 6.03 0 10.921-4.869 10.921-10.874 0-6.003-4.891-10.872-10.92-10.872"/>
        <path fill="#FFF" d="M109.603 213.316c4.137 0 7.502-3.35 7.502-7.468s-3.365-7.468-7.502-7.468c-4.138 0-7.503 3.35-7.503 7.468s3.365 7.468 7.503 7.468m0-21.746c7.907 0 14.34 6.405 14.34 14.278s-6.433 14.278-14.34 14.278c-7.908 0-14.34-6.405-14.34-14.278s6.432-14.278 14.34-14.278"/>
        <path fill="#F35C00" d="M204.81 289.514c-6.033 0-10.92 4.87-10.92 10.873 0 6.004 4.887 10.873 10.92 10.873 6.03 0 10.922-4.87 10.922-10.873 0-6.004-4.893-10.873-10.922-10.873"/>
        <path fill="#FFF" d="M204.81 307.855c4.137 0 7.503-3.35 7.503-7.467 0-4.118-3.366-7.469-7.503-7.469-4.137 0-7.502 3.35-7.502 7.469 0 4.116 3.365 7.467 7.502 7.467m0-21.746c7.907 0 14.34 6.406 14.34 14.279 0 7.872-6.433 14.277-14.34 14.277s-14.34-6.405-14.34-14.277c0-7.873 6.433-14.279 14.34-14.279"/>
    </g>
</svg>
