<svg xmlns="http://www.w3.org/2000/svg" xmlns:xlink="http://www.w3.org/1999/xlink" width="501" height="695" viewBox="0 0 501 695">
    <defs>
        <path id="a" d="M.16.778h28.68V29.44H.16z"/>
    </defs>
    <g fill="none" fill-rule="evenodd">
        <path fill="#2ECCC0" d="M107.903 204.31l2.406 2.412-95.53 94.494-2.408-2.411z"/>
        <path fill="#2ECCC0" d="M15.815 298.124l94.494 95.532-2.413 2.406-94.494-95.532zM111.691 203.278l94.495 95.532-2.414 2.406-94.494-95.532z"/>
        <path fill="#2ECCC0" d="M107.87 204.31l3.47.011-.654 190.71-3.47-.012z"/>
        <path fill="#2ECCC0" d="M13.414 298.124l190.71.652-.011 3.471-190.71-.651z"/>
        <path fill="#2ECCC0" d="M203.78 299.155l2.406 2.413-95.532 94.494-2.407-2.413z"/>
        <path fill="#2ECCC0" d="M15.815 298.124l94.494 95.532-2.413 2.406-94.494-95.532zM202.748 487.814l2.407 2.413-95.532 94.495-2.407-2.412z"/>
        <path fill="#2ECCC0" d="M110.66 581.629l94.495 95.532-2.413 2.406-94.495-95.532zM205.506 486.784L300 582.316l-2.413 2.406-94.494-95.532z"/>
        <path fill="#2ECCC0" d="M202.716 487.814l3.47.012-.654 190.71-3.47-.012z"/>
        <path fill="#2ECCC0" d="M108.26 581.629l190.71.652-.012 3.472-190.71-.652z"/>
        <path fill="#2ECCC0" d="M297.594 582.66l2.406 2.413-95.531 94.494-2.407-2.413z"/>
        <path fill="#2ECCC0" d="M110.66 581.629l94.495 95.532-2.413 2.406-94.495-95.532zM393.47 299.155l2.406 2.412-95.53 94.495-2.408-2.412z"/>
        <path fill="#2ECCC0" d="M300.351 392.97l94.494 95.531-2.413 2.406-94.494-95.532zM396.228 298.124l94.494 95.532-2.413 2.406-94.495-95.532z"/>
        <path fill="#2ECCC0" d="M392.407 299.155l3.47.012-.655 190.71-3.47-.013z"/>
        <path fill="#2ECCC0" d="M297.95 392.97l190.71.65-.011 3.473-190.71-.652z"/>
        <path fill="#2ECCC0" d="M488.316 394l2.406 2.413-95.532 94.494-2.406-2.413z"/>
        <path fill="#2ECCC0" d="M300.351 392.97l94.494 95.531-2.413 2.406-94.494-95.532zM108.934 13.588L111.34 16l-95.53 94.495-2.408-2.412z"/>
        <path fill="#2ECCC0" d="M15.815 108.433l94.494 95.532-2.413 2.406-94.494-95.532zM111.691 13.588l94.495 95.532-2.414 2.406-94.494-95.532z"/>
        <path fill="#2ECCC0" d="M107.87 14.619l3.47.012-.654 190.71-3.47-.013z"/>
        <path fill="#2ECCC0" d="M13.414 107.402l190.71.652-.011 3.472-190.71-.652z"/>
        <path fill="#2ECCC0" d="M203.78 109.464l2.406 2.413-95.532 94.494-2.407-2.413z"/>
        <path fill="#2ECCC0" d="M15.815 108.433l94.494 95.532-2.413 2.406-94.494-95.532zM203.78 299.155l2.406 2.412-95.532 94.495-2.407-2.412z"/>
        <path fill="#2ECCC0" d="M110.66 394l94.495 95.532-2.413 2.406-94.495-95.532zM206.537 299.155l94.494 95.532-2.413 2.406-94.494-95.532z"/>
        <path fill="#2ECCC0" d="M202.716 300.186l3.47.012-.654 190.71-3.47-.013z"/>
        <path fill="#2ECCC0" d="M108.26 392.97l190.71.65-.012 3.473-190.71-.652z"/>
        <path fill="#2ECCC0" d="M298.625 395.03l2.406 2.414-95.531 94.494-2.407-2.413z"/>
        <path fill="#2ECCC0" d="M110.66 394l94.495 95.532-2.413 2.406-94.495-95.532z"/>
        <path fill="#0DA7A5" d="M203.77 478.898c-6.033 0-10.92 4.887-10.92 10.914s4.887 10.915 10.92 10.915c6.03 0 10.921-4.888 10.921-10.915 0-6.027-4.891-10.914-10.92-10.914"/>
        <path fill="#FFF" d="M203.77 497.309c4.137 0 7.502-3.363 7.502-7.496 0-4.134-3.365-7.497-7.502-7.497s-7.502 3.363-7.502 7.497c0 4.133 3.365 7.496 7.502 7.496m0-21.829c7.908 0 14.34 6.43 14.34 14.333 0 7.902-6.432 14.331-14.34 14.331-7.907 0-14.34-6.429-14.34-14.331 0-7.903 6.433-14.333 14.34-14.333"/>
        <path fill="#0DA7A5" d="M298.788 573.112c-6.034 0-10.922 4.888-10.922 10.914s4.888 10.914 10.922 10.914c6.028 0 10.92-4.888 10.92-10.914s-4.892-10.914-10.92-10.914"/>
        <path fill="#FFF" d="M298.787 591.523c4.138 0 7.502-3.363 7.502-7.496 0-4.134-3.364-7.497-7.502-7.497-4.137 0-7.502 3.363-7.502 7.497 0 4.133 3.365 7.496 7.502 7.496m0-21.829c7.908 0 14.34 6.43 14.34 14.333 0 7.903-6.432 14.331-14.34 14.331-7.907 0-14.34-6.428-14.34-14.331s6.433-14.333 14.34-14.333"/>
        <path fill="#0DA7A5" d="M203.45 667.976c-6.034 0-10.922 4.888-10.922 10.914 0 6.027 4.888 10.915 10.921 10.915 6.03 0 10.92-4.888 10.92-10.915 0-6.026-4.89-10.914-10.92-10.914"/>
        <g transform="rotate(-180 108.974 347)">
            <mask id="b" fill="#fff">
                <use xlink:href="#a"/>
            </mask>
            <path fill="#FFF" d="M14.5 7.613c-4.137 0-7.502 3.363-7.502 7.495 0 4.134 3.365 7.497 7.501 7.497 4.138 0 7.503-3.363 7.503-7.497 0-4.132-3.365-7.495-7.503-7.495m0 21.828C6.593 29.44.16 23.01.16 15.108.16 7.206 6.593.778 14.5.778s14.34 6.428 14.34 14.33c0 7.903-6.433 14.333-14.34 14.333" mask="url(#b)"/>
        </g>
        <path fill="#0DA7A5" d="M108.563 572.374c-6.033 0-10.921 4.887-10.921 10.913 0 6.028 4.888 10.914 10.921 10.914 6.029 0 10.92-4.886 10.92-10.914 0-6.026-4.891-10.913-10.92-10.913"/>
        <path fill="#FFF" d="M108.563 590.784c4.137 0 7.502-3.363 7.502-7.496 0-4.134-3.365-7.497-7.502-7.497s-7.502 3.363-7.502 7.497c0 4.133 3.365 7.496 7.502 7.496m0-21.828c7.907 0 14.34 6.43 14.34 14.332 0 7.903-6.433 14.332-14.34 14.332s-14.34-6.429-14.34-14.332c0-7.903 6.433-14.332 14.34-14.332"/>
        <path fill="#0DA7A5" d="M299.428 384.764c-6.033 0-10.921 4.887-10.921 10.914 0 6.026 4.888 10.914 10.92 10.914 6.03 0 10.921-4.888 10.921-10.914 0-6.027-4.892-10.914-10.92-10.914"/>
        <path fill="#FFF" d="M299.427 403.175c4.138 0 7.503-3.363 7.503-7.496 0-4.134-3.365-7.497-7.503-7.497-4.137 0-7.502 3.363-7.502 7.497 0 4.133 3.365 7.496 7.502 7.496m0-21.829c7.908 0 14.34 6.43 14.34 14.333 0 7.902-6.432 14.331-14.34 14.331-7.907 0-14.34-6.429-14.34-14.331 0-7.903 6.433-14.333 14.34-14.333"/>
        <path fill="#0DA7A5" d="M394 289.482c-6.033 0-10.921 4.887-10.921 10.914S387.967 311.31 394 311.31c6.028 0 10.92-4.887 10.92-10.914s-4.892-10.914-10.92-10.914"/>
        <path fill="#FFF" d="M394 307.893c4.137 0 7.502-3.364 7.502-7.497s-3.365-7.497-7.503-7.497c-4.137 0-7.501 3.364-7.501 7.497s3.364 7.497 7.501 7.497m0-21.83c7.908 0 14.34 6.43 14.34 14.333 0 7.903-6.432 14.332-14.34 14.332-7.907 0-14.34-6.429-14.34-14.332 0-7.902 6.433-14.332 14.34-14.332"/>
        <path fill="#0DA7A5" d="M393.774 479.628c-6.033 0-10.92 4.888-10.92 10.914 0 6.027 4.887 10.915 10.92 10.915 6.029 0 10.921-4.888 10.921-10.915 0-6.026-4.892-10.914-10.921-10.914"/>
        <path fill="#FFF" d="M393.774 498.039c4.137 0 7.502-3.363 7.502-7.495 0-4.134-3.365-7.497-7.502-7.497-4.138 0-7.503 3.363-7.503 7.497 0 4.132 3.365 7.495 7.503 7.495m0-21.828c7.907 0 14.34 6.43 14.34 14.333 0 7.901-6.433 14.33-14.34 14.33-7.908 0-14.34-6.429-14.34-14.33 0-7.903 6.432-14.333 14.34-14.333"/>
        <path fill="#0DA7A5" d="M109.103 384.025c-6.033 0-10.92 4.888-10.92 10.914 0 6.028 4.887 10.914 10.92 10.914 6.029 0 10.92-4.886 10.92-10.914 0-6.026-4.891-10.914-10.92-10.914"/>
        <path fill="#FFF" d="M109.103 402.436c4.137 0 7.502-3.363 7.502-7.496 0-4.134-3.365-7.497-7.502-7.497s-7.502 3.363-7.502 7.497c0 4.133 3.365 7.496 7.502 7.496m0-21.828c7.907 0 14.34 6.43 14.34 14.332 0 7.903-6.433 14.332-14.34 14.332s-14.34-6.429-14.34-14.332c0-7.903 6.433-14.332 14.34-14.332"/>
        <path fill="#0DA7A5" d="M110.002 3.604c-6.033 0-10.921 4.887-10.921 10.914s4.888 10.914 10.92 10.914c6.03 0 10.922-4.887 10.922-10.914S116.03 3.604 110.002 3.604"/>
        <path fill="#FFF" d="M110.002 22.014c4.136 0 7.501-3.363 7.501-7.496 0-4.134-3.365-7.497-7.501-7.497-4.138 0-7.503 3.363-7.503 7.497 0 4.133 3.365 7.496 7.503 7.496m0-21.828c7.906 0 14.339 6.43 14.339 14.332 0 7.903-6.433 14.332-14.34 14.332s-14.34-6.429-14.34-14.332c0-7.903 6.433-14.332 14.34-14.332"/>
        <path fill="#0DA7A5" d="M14.395 98.565c-6.033 0-10.921 4.887-10.921 10.913 0 6.028 4.888 10.915 10.921 10.915 6.028 0 10.92-4.887 10.92-10.915 0-6.026-4.892-10.913-10.92-10.913"/>
        <path fill="#FFF" d="M14.394 116.975c4.138 0 7.503-3.363 7.503-7.496 0-4.134-3.365-7.497-7.503-7.497-4.136 0-7.501 3.363-7.501 7.497 0 4.133 3.365 7.496 7.501 7.496m0-21.828c7.908 0 14.34 6.43 14.34 14.332 0 7.903-6.432 14.332-14.34 14.332-7.906 0-14.339-6.429-14.339-14.332 0-7.903 6.433-14.332 14.34-14.332"/>
        <path fill="#0DA7A5" d="M203.77 99.303c-6.033 0-10.92 4.887-10.92 10.914s4.887 10.914 10.92 10.914c6.03 0 10.921-4.887 10.921-10.914s-4.891-10.914-10.92-10.914"/>
        <path fill="#FFF" d="M203.77 117.714c4.137 0 7.502-3.363 7.502-7.496 0-4.134-3.365-7.497-7.502-7.497s-7.502 3.363-7.502 7.497c0 4.133 3.365 7.496 7.502 7.496m0-21.829c7.908 0 14.34 6.43 14.34 14.333 0 7.902-6.432 14.331-14.34 14.331-7.907 0-14.34-6.429-14.34-14.331 0-7.903 6.433-14.333 14.34-14.333"/>
        <path fill="#0DA7A5" d="M14.395 289.137c-6.033 0-10.921 4.888-10.921 10.914s4.888 10.914 10.921 10.914c6.028 0 10.92-4.888 10.92-10.914s-4.892-10.914-10.92-10.914"/>
        <path fill="#FFF" d="M14.394 307.547c4.138 0 7.503-3.363 7.503-7.495 0-4.134-3.365-7.497-7.503-7.497-4.136 0-7.501 3.363-7.501 7.497 0 4.132 3.365 7.495 7.501 7.495m0-21.828c7.908 0 14.34 6.43 14.34 14.333 0 7.902-6.432 14.33-14.34 14.33-7.906 0-14.339-6.428-14.339-14.33 0-7.903 6.433-14.333 14.34-14.333"/>
        <path fill="#0DA7A5" d="M485.66 384.764c-6.033 0-10.921 4.887-10.921 10.914 0 6.026 4.888 10.914 10.921 10.914 6.028 0 10.92-4.888 10.92-10.914 0-6.027-4.892-10.914-10.92-10.914"/>
        <path fill="#FFF" d="M485.66 403.175c4.137 0 7.502-3.363 7.502-7.496 0-4.134-3.365-7.497-7.503-7.497-4.137 0-7.501 3.363-7.501 7.497 0 4.133 3.364 7.496 7.501 7.496m0-21.829c7.908 0 14.34 6.43 14.34 14.333 0 7.902-6.432 14.331-14.34 14.331-7.907 0-14.34-6.429-14.34-14.331 0-7.903 6.433-14.333 14.34-14.333"/>
        <path fill="#0DA7A5" d="M109.603 194.167c-6.034 0-10.922 4.888-10.922 10.915 0 6.026 4.888 10.914 10.922 10.914 6.029 0 10.92-4.888 10.92-10.914 0-6.027-4.891-10.915-10.92-10.915"/>
        <path fill="#FFF" d="M109.603 212.578c4.136 0 7.501-3.363 7.501-7.495 0-4.134-3.365-7.497-7.501-7.497-4.138 0-7.503 3.363-7.503 7.497 0 4.132 3.365 7.495 7.503 7.495m0-21.828c7.906 0 14.339 6.43 14.339 14.333 0 7.902-6.433 14.33-14.34 14.33s-14.34-6.428-14.34-14.33c0-7.903 6.433-14.333 14.34-14.333"/>
        <path fill="#0DA7A5" d="M204.81 289.065c-6.034 0-10.92 4.887-10.92 10.914s4.886 10.913 10.92 10.913c6.029 0 10.921-4.886 10.921-10.913s-4.892-10.914-10.921-10.914"/>
        <path fill="#FFF" d="M204.81 307.475c4.137 0 7.502-3.363 7.502-7.496 0-4.134-3.365-7.497-7.502-7.497-4.138 0-7.503 3.363-7.503 7.497 0 4.133 3.365 7.496 7.503 7.496m0-21.828c7.907 0 14.34 6.43 14.34 14.332 0 7.903-6.433 14.332-14.34 14.332-7.908 0-14.34-6.429-14.34-14.332 0-7.903 6.432-14.332 14.34-14.332"/>
    </g>
</svg>
