<svg xmlns="http://www.w3.org/2000/svg" width="501" height="695" viewBox="0 0 501 695">
    <g fill="none" fill-rule="evenodd">
        <path fill="#D3F4F1" d="M109.398 205.246l2.409 2.426-95.627 95.013-2.41-2.425z"/>
        <path fill="#D3F4F1" d="M16.108 300.188l94.986 95.648-2.425 2.41-94.987-95.649zM111.739 205.182l94.985 95.65-2.426 2.408-94.985-95.65z"/>
        <path fill="#D3F4F1" d="M108.816 206.766l3.42.012-.645 190.269-3.42-.012z"/>
        <path fill="#D3F4F1" d="M15.001 299.78l190.224.642-.01 3.42-190.226-.643z"/>
        <path fill="#D3F4F1" d="M204.307 300.823l2.408 2.426-95.629 95.005-2.41-2.426z"/>
        <path fill="#D3F4F1" d="M16.108 300.188l94.986 95.648-2.425 2.41-94.987-95.649zM203.965 489.01l2.409 2.427-95.627 95.013-2.41-2.425z"/>
        <path fill="#D3F4F1" d="M110.675 583.952l94.987 95.65-2.425 2.41-94.988-95.65zM206.306 488.947l94.985 95.648-2.426 2.41-94.984-95.65z"/>
        <path fill="#D3F4F1" d="M203.384 490.53l3.42.013-.645 190.269-3.42-.011z"/>
        <path fill="#D3F4F1" d="M109.568 583.544l190.224.642-.01 3.42-190.226-.642z"/>
        <path fill="#D3F4F1" d="M298.874 584.587l2.408 2.426-95.628 95.007-2.41-2.426z"/>
        <path fill="#D3F4F1" d="M110.675 583.952l94.987 95.65-2.425 2.41-94.988-95.65zM394.29 300.252l2.408 2.426-95.626 95.014-2.41-2.426z"/>
        <path fill="#D3F4F1" d="M301 395.193l94.987 95.649-2.426 2.41-94.987-95.649zM396.631 300.188l94.985 95.649-2.426 2.409-94.985-95.649z"/>
        <path fill="#D3F4F1" d="M393.709 301.772l3.419.012-.645 190.269-3.419-.012z"/>
        <path fill="#D3F4F1" d="M299.893 394.785l190.224.642-.011 3.42-190.225-.642z"/>
        <path fill="#D3F4F1" d="M489.198 395.828l2.409 2.426-95.628 95.006-2.41-2.426z"/>
        <path fill="#D3F4F1" d="M301 395.193l94.987 95.649-2.426 2.41-94.987-95.649zM109.797 14.977l2.409 2.426-95.627 95.013-2.41-2.425z"/>
        <path fill="#D3F4F1" d="M16.507 109.919l94.987 95.648-2.425 2.409-94.988-95.648zM112.138 14.912l94.985 95.65-2.426 2.409-94.984-95.65z"/>
        <path fill="#D3F4F1" d="M109.216 16.496l3.419.012-.644 190.27-3.42-.013z"/>
        <path fill="#D3F4F1" d="M15.4 109.51l190.224.642-.01 3.42-190.226-.642z"/>
        <path fill="#D3F4F1" d="M204.706 110.553l2.408 2.426-95.628 95.006-2.41-2.426z"/>
        <path fill="#D3F4F1" d="M16.507 109.919l94.987 95.648-2.425 2.409-94.988-95.648zM204.605 300.573l2.409 2.426-95.626 95.014-2.41-2.426z"/>
        <path fill="#D3F4F1" d="M111.315 395.515l94.987 95.648-2.425 2.41-94.987-95.648zM206.947 300.51l94.984 95.648-2.425 2.409-94.985-95.649z"/>
        <path fill="#D3F4F1" d="M204.025 302.093l3.418.012-.644 190.27-3.419-.013z"/>
        <path fill="#D3F4F1" d="M110.209 395.107l190.223.642-.01 3.419-190.225-.642z"/>
        <path fill="#D3F4F1" d="M299.514 396.15l2.408 2.425-95.628 95.007-2.41-2.426z"/>
        <path fill="#D3F4F1" d="M111.315 395.515l94.987 95.648-2.425 2.41-94.987-95.648z"/>
        <path fill="#FFF" d="M204.77 480.718c-6.033 0-10.92 4.89-10.92 10.92s4.887 10.919 10.92 10.919c6.03 0 10.921-4.89 10.921-10.92 0-6.029-4.891-10.919-10.92-10.919"/>
        <path fill="#0DA7A5" d="M204.77 499.138c4.137 0 7.502-3.365 7.502-7.5 0-4.136-3.365-7.5-7.502-7.5s-7.502 3.364-7.502 7.5c0 4.135 3.365 7.5 7.502 7.5m0-21.84c7.908 0 14.34 6.433 14.34 14.34s-6.432 14.338-14.34 14.338c-7.907 0-14.34-6.431-14.34-14.338 0-7.907 6.433-14.34 14.34-14.34"/>
        <path fill="#FFF" d="M299.788 574.977c-6.034 0-10.922 4.89-10.922 10.92s4.888 10.918 10.922 10.918c6.028 0 10.92-4.889 10.92-10.919s-4.892-10.919-10.92-10.919"/>
        <path fill="#0DA7A5" d="M299.787 593.396c4.138 0 7.502-3.365 7.502-7.5s-3.364-7.5-7.502-7.5c-4.137 0-7.502 3.365-7.502 7.5s3.365 7.5 7.502 7.5m0-21.838c7.908 0 14.34 6.432 14.34 14.339 0 7.906-6.432 14.338-14.34 14.338-7.907 0-14.34-6.432-14.34-14.338 0-7.907 6.433-14.339 14.34-14.339"/>
        <path fill="#FFF" d="M204.45 669.887c-6.034 0-10.922 4.89-10.922 10.92s4.888 10.919 10.921 10.919c6.03 0 10.92-4.89 10.92-10.92s-4.89-10.92-10.92-10.92"/>
        <path fill="#0DA7A5" d="M204.45 688.306c4.136 0 7.501-3.365 7.501-7.5 0-4.136-3.365-7.5-7.502-7.5s-7.502 3.364-7.502 7.5c0 4.135 3.365 7.5 7.502 7.5m0-21.838c7.907 0 14.34 6.432 14.34 14.338 0 7.907-6.433 14.339-14.34 14.339s-14.34-6.432-14.34-14.339c0-7.906 6.433-14.338 14.34-14.338"/>
        <path fill="#FFF" d="M109.563 574.238c-6.033 0-10.921 4.89-10.921 10.92s4.888 10.92 10.921 10.92c6.029 0 10.92-4.89 10.92-10.92s-4.891-10.92-10.92-10.92"/>
        <path fill="#0DA7A5" d="M109.563 592.657c4.137 0 7.502-3.364 7.502-7.5 0-4.135-3.365-7.499-7.502-7.499s-7.502 3.364-7.502 7.5c0 4.135 3.365 7.5 7.502 7.5m0-21.839c7.907 0 14.34 6.432 14.34 14.339 0 7.906-6.433 14.338-14.34 14.338s-14.34-6.432-14.34-14.338c0-7.907 6.433-14.339 14.34-14.339"/>
        <path fill="#FFF" d="M300.428 386.54c-6.033 0-10.921 4.889-10.921 10.918 0 6.03 4.888 10.92 10.92 10.92 6.03 0 10.921-4.89 10.921-10.92 0-6.029-4.892-10.919-10.92-10.919"/>
        <path fill="#0DA7A5" d="M300.427 404.958c4.138 0 7.503-3.364 7.503-7.5 0-4.135-3.365-7.499-7.503-7.499-4.137 0-7.502 3.364-7.502 7.5 0 4.135 3.365 7.5 7.502 7.5m0-21.839c7.908 0 14.34 6.432 14.34 14.339 0 7.906-6.432 14.338-14.34 14.338-7.907 0-14.34-6.432-14.34-14.338 0-7.907 6.433-14.339 14.34-14.339"/>
        <path fill="#FFF" d="M395 291.212c-6.033 0-10.921 4.89-10.921 10.92S388.967 313.05 395 313.05c6.028 0 10.92-4.889 10.92-10.919s-4.892-10.919-10.92-10.919"/>
        <path fill="#0DA7A5" d="M395 309.632c4.137 0 7.502-3.365 7.502-7.5 0-4.136-3.365-7.5-7.503-7.5-4.137 0-7.501 3.364-7.501 7.5 0 4.135 3.364 7.5 7.501 7.5m0-21.84c7.908 0 14.34 6.433 14.34 14.34 0 7.906-6.432 14.338-14.34 14.338-7.907 0-14.34-6.432-14.34-14.338 0-7.907 6.433-14.34 14.34-14.34"/>
        <path fill="#FFF" d="M394.774 481.449c-6.033 0-10.92 4.89-10.92 10.92s4.887 10.919 10.92 10.919c6.029 0 10.921-4.89 10.921-10.92s-4.892-10.919-10.921-10.919"/>
        <path fill="#0DA7A5" d="M394.774 499.868c4.137 0 7.502-3.365 7.502-7.5s-3.365-7.5-7.502-7.5c-4.138 0-7.503 3.365-7.503 7.5s3.365 7.5 7.503 7.5m0-21.838c7.907 0 14.34 6.432 14.34 14.338 0 7.907-6.433 14.339-14.34 14.339-7.908 0-14.34-6.432-14.34-14.339 0-7.906 6.432-14.338 14.34-14.338"/>
        <path fill="#FFF" d="M110.103 385.8c-6.033 0-10.92 4.89-10.92 10.92s4.887 10.92 10.92 10.92c6.029 0 10.92-4.89 10.92-10.92s-4.891-10.92-10.92-10.92"/>
        <path fill="#0DA7A5" d="M110.103 404.22c4.137 0 7.502-3.365 7.502-7.5 0-4.136-3.365-7.5-7.502-7.5s-7.502 3.364-7.502 7.5c0 4.135 3.365 7.5 7.502 7.5m0-21.839c7.907 0 14.34 6.432 14.34 14.339 0 7.906-6.433 14.338-14.34 14.338s-14.34-6.432-14.34-14.338c0-7.907 6.433-14.339 14.34-14.339"/>
        <path fill="#FFF" d="M111.002 5.198c-6.033 0-10.921 4.89-10.921 10.919 0 6.03 4.888 10.92 10.92 10.92 6.03 0 10.922-4.89 10.922-10.92s-4.892-10.92-10.921-10.92"/>
        <path fill="#0DA7A5" d="M111.002 23.617c4.136 0 7.501-3.365 7.501-7.5s-3.365-7.5-7.501-7.5c-4.138 0-7.503 3.365-7.503 7.5s3.365 7.5 7.503 7.5m0-21.839c7.906 0 14.339 6.433 14.339 14.34 0 7.906-6.433 14.338-14.34 14.338s-14.34-6.432-14.34-14.339c0-7.906 6.433-14.339 14.34-14.339"/>
        <path fill="#FFF" d="M15.395 100.204c-6.033 0-10.921 4.89-10.921 10.919 0 6.03 4.888 10.919 10.921 10.919 6.028 0 10.92-4.889 10.92-10.92 0-6.028-4.892-10.918-10.92-10.918"/>
        <path fill="#0DA7A5" d="M15.394 118.623c4.138 0 7.503-3.364 7.503-7.5 0-4.135-3.365-7.5-7.503-7.5-4.136 0-7.501 3.365-7.501 7.5 0 4.136 3.365 7.5 7.501 7.5m0-21.839c7.908 0 14.34 6.433 14.34 14.34 0 7.906-6.432 14.338-14.34 14.338-7.906 0-14.339-6.432-14.339-14.338 0-7.907 6.433-14.34 14.34-14.34"/>
        <path fill="#FFF" d="M204.77 100.943c-6.033 0-10.92 4.89-10.92 10.919 0 6.03 4.887 10.919 10.92 10.919 6.03 0 10.921-4.89 10.921-10.92 0-6.029-4.891-10.918-10.92-10.918"/>
        <path fill="#0DA7A5" d="M204.77 119.362c4.137 0 7.502-3.365 7.502-7.5s-3.365-7.5-7.502-7.5-7.502 3.365-7.502 7.5 3.365 7.5 7.502 7.5m0-21.839c7.908 0 14.34 6.433 14.34 14.34 0 7.906-6.432 14.338-14.34 14.338-7.907 0-14.34-6.432-14.34-14.339 0-7.906 6.433-14.339 14.34-14.339"/>
        <path fill="#FFF" d="M15.395 290.866c-6.033 0-10.921 4.891-10.921 10.92 0 6.03 4.888 10.92 10.921 10.92 6.028 0 10.92-4.89 10.92-10.92 0-6.029-4.892-10.92-10.92-10.92"/>
        <path fill="#0DA7A5" d="M15.394 309.286c4.138 0 7.503-3.365 7.503-7.499 0-4.136-3.365-7.5-7.503-7.5-4.136 0-7.501 3.364-7.501 7.5 0 4.134 3.365 7.499 7.501 7.499m0-21.838c7.908 0 14.34 6.433 14.34 14.34 0 7.905-6.432 14.337-14.34 14.337-7.906 0-14.339-6.432-14.339-14.338 0-7.906 6.433-14.34 14.34-14.34"/>
        <path fill="#FFF" d="M486.66 386.54c-6.033 0-10.921 4.889-10.921 10.918 0 6.03 4.888 10.92 10.921 10.92 6.028 0 10.92-4.89 10.92-10.92 0-6.029-4.892-10.919-10.92-10.919"/>
        <path fill="#0DA7A5" d="M486.66 404.958c4.137 0 7.502-3.364 7.502-7.5 0-4.135-3.365-7.499-7.503-7.499-4.137 0-7.501 3.364-7.501 7.5 0 4.135 3.364 7.5 7.501 7.5m0-21.839c7.908 0 14.34 6.432 14.34 14.339 0 7.906-6.432 14.338-14.34 14.338-7.907 0-14.34-6.432-14.34-14.338 0-7.907 6.433-14.339 14.34-14.339"/>
        <path fill="#FFF" d="M110.603 195.852c-6.034 0-10.922 4.89-10.922 10.919 0 6.03 4.888 10.92 10.922 10.92 6.029 0 10.92-4.89 10.92-10.92 0-6.028-4.891-10.92-10.92-10.92"/>
        <path fill="#0DA7A5" d="M110.603 214.271c4.136 0 7.501-3.364 7.501-7.498 0-4.136-3.365-7.5-7.501-7.5-4.138 0-7.503 3.364-7.503 7.5 0 4.134 3.365 7.498 7.503 7.498m0-21.838c7.906 0 14.339 6.433 14.339 14.34 0 7.905-6.433 14.337-14.34 14.337s-14.34-6.432-14.34-14.337c0-7.907 6.433-14.34 14.34-14.34"/>
        <path fill="#FFF" d="M205.81 290.795c-6.034 0-10.92 4.89-10.92 10.919 0 6.03 4.886 10.919 10.92 10.919 6.029 0 10.921-4.89 10.921-10.92 0-6.029-4.892-10.918-10.921-10.918"/>
        <path fill="#0DA7A5" d="M205.81 309.214c4.137 0 7.502-3.365 7.502-7.5s-3.365-7.5-7.502-7.5c-4.138 0-7.503 3.365-7.503 7.5s3.365 7.5 7.503 7.5m0-21.839c7.907 0 14.34 6.433 14.34 14.34 0 7.906-6.433 14.338-14.34 14.338-7.908 0-14.34-6.432-14.34-14.338 0-7.907 6.432-14.34 14.34-14.34"/>
    </g>
</svg>
